<mxfile host="Electron" agent="Mozilla/5.0 (X11; Linux x86_64) AppleWebKit/537.36 (KHTML, like Gecko) draw.io/24.7.17 Chrome/128.0.6613.36 Electron/32.0.1 Safari/537.36" version="24.7.17">
  <diagram name="Page-1" id="vKIahe1MYDicm_u_yyeZ">
    <mxGraphModel dx="1434" dy="843" grid="1" gridSize="10" guides="1" tooltips="1" connect="1" arrows="1" fold="1" page="1" pageScale="1" pageWidth="1169" pageHeight="827" math="1" shadow="0">
      <root>
        <mxCell id="0" />
        <mxCell id="1" parent="0" />
        <mxCell id="ib_VcqRpzg_vTdFNA_JS-8" value="" style="endArrow=none;html=1;rounded=0;strokeWidth=1.618;" edge="1" parent="1">
          <mxGeometry width="50" height="50" relative="1" as="geometry">
            <mxPoint x="240" y="600" as="sourcePoint" />
            <mxPoint x="440" y="600" as="targetPoint" />
          </mxGeometry>
        </mxCell>
        <mxCell id="ib_VcqRpzg_vTdFNA_JS-6" value="" style="ellipse;whiteSpace=wrap;html=1;aspect=fixed;gradientColor=#E6E6E6;" vertex="1" parent="1">
          <mxGeometry x="325" y="680" width="40" height="40" as="geometry" />
        </mxCell>
        <mxCell id="ib_VcqRpzg_vTdFNA_JS-1" value="&lt;font style=&quot;font-size: 18px;&quot;&gt;$$\texttt{H}$$&lt;/font&gt;" style="rounded=0;whiteSpace=wrap;html=1;fillColor=#dae8fc;gradientColor=#7ea6e0;strokeColor=#6c8ebf;" vertex="1" parent="1">
          <mxGeometry x="300" y="80" width="90" height="80" as="geometry" />
        </mxCell>
        <mxCell id="ib_VcqRpzg_vTdFNA_JS-2" value="&lt;font style=&quot;font-size: 18px;&quot;&gt;$$\texttt{X}$$&lt;/font&gt;" style="rounded=0;whiteSpace=wrap;html=1;fillColor=#e6d0de;gradientColor=#d5739d;strokeColor=#996185;" vertex="1" parent="1">
          <mxGeometry x="300" y="200" width="90" height="80" as="geometry" />
        </mxCell>
        <mxCell id="ib_VcqRpzg_vTdFNA_JS-3" value="&lt;font style=&quot;font-size: 18px;&quot;&gt;$$\texttt{Z}$$&lt;/font&gt;" style="rounded=0;whiteSpace=wrap;html=1;fillColor=#d5e8d4;gradientColor=#97d077;strokeColor=#82b366;" vertex="1" parent="1">
          <mxGeometry x="300" y="320" width="90" height="80" as="geometry" />
        </mxCell>
        <mxCell id="ib_VcqRpzg_vTdFNA_JS-4" value="" style="shape=ellipse;fillColor=#0065FF;strokeColor=none;html=1;sketch=0;gradientColor=#E6E6E6;" vertex="1" parent="1">
          <mxGeometry x="325" y="580" width="40" height="40" as="geometry" />
        </mxCell>
        <mxCell id="ib_VcqRpzg_vTdFNA_JS-5" value="" style="endArrow=none;html=1;rounded=0;entryX=0.5;entryY=1;entryDx=0;entryDy=0;strokeWidth=1.618;exitX=0.5;exitY=1;exitDx=0;exitDy=0;" edge="1" parent="1" source="ib_VcqRpzg_vTdFNA_JS-6" target="ib_VcqRpzg_vTdFNA_JS-4">
          <mxGeometry width="50" height="50" relative="1" as="geometry">
            <mxPoint x="345" y="780" as="sourcePoint" />
            <mxPoint x="610" y="470" as="targetPoint" />
          </mxGeometry>
        </mxCell>
        <mxCell id="ib_VcqRpzg_vTdFNA_JS-7" value="" style="endArrow=none;html=1;rounded=0;entryX=0.5;entryY=1;entryDx=0;entryDy=0;strokeWidth=1.618;" edge="1" parent="1" target="ib_VcqRpzg_vTdFNA_JS-6">
          <mxGeometry width="50" height="50" relative="1" as="geometry">
            <mxPoint x="345" y="720" as="sourcePoint" />
            <mxPoint x="345" y="560" as="targetPoint" />
          </mxGeometry>
        </mxCell>
        <mxCell id="ib_VcqRpzg_vTdFNA_JS-9" value="" style="endArrow=none;html=1;rounded=0;strokeWidth=1.618;" edge="1" parent="1">
          <mxGeometry width="50" height="50" relative="1" as="geometry">
            <mxPoint x="240" y="699.5" as="sourcePoint" />
            <mxPoint x="440" y="699.5" as="targetPoint" />
          </mxGeometry>
        </mxCell>
        <mxCell id="ib_VcqRpzg_vTdFNA_JS-10" value="" style="endArrow=none;html=1;rounded=0;strokeWidth=1.618;" edge="1" parent="1">
          <mxGeometry width="50" height="50" relative="1" as="geometry">
            <mxPoint x="240" y="360" as="sourcePoint" />
            <mxPoint x="300" y="360" as="targetPoint" />
          </mxGeometry>
        </mxCell>
        <mxCell id="ib_VcqRpzg_vTdFNA_JS-11" value="" style="endArrow=none;html=1;rounded=0;strokeWidth=1.618;" edge="1" parent="1">
          <mxGeometry width="50" height="50" relative="1" as="geometry">
            <mxPoint x="390" y="359.5" as="sourcePoint" />
            <mxPoint x="440" y="360" as="targetPoint" />
          </mxGeometry>
        </mxCell>
        <mxCell id="ib_VcqRpzg_vTdFNA_JS-12" value="" style="endArrow=none;html=1;rounded=0;strokeWidth=1.618;" edge="1" parent="1">
          <mxGeometry width="50" height="50" relative="1" as="geometry">
            <mxPoint x="390" y="239.5" as="sourcePoint" />
            <mxPoint x="440" y="240" as="targetPoint" />
          </mxGeometry>
        </mxCell>
        <mxCell id="ib_VcqRpzg_vTdFNA_JS-13" value="" style="endArrow=none;html=1;rounded=0;strokeWidth=1.618;" edge="1" parent="1">
          <mxGeometry width="50" height="50" relative="1" as="geometry">
            <mxPoint x="390" y="119.5" as="sourcePoint" />
            <mxPoint x="440" y="120" as="targetPoint" />
          </mxGeometry>
        </mxCell>
        <mxCell id="ib_VcqRpzg_vTdFNA_JS-14" value="" style="endArrow=none;html=1;rounded=0;strokeWidth=1.618;" edge="1" parent="1">
          <mxGeometry width="50" height="50" relative="1" as="geometry">
            <mxPoint x="240" y="239.5" as="sourcePoint" />
            <mxPoint x="300" y="239.5" as="targetPoint" />
          </mxGeometry>
        </mxCell>
        <mxCell id="ib_VcqRpzg_vTdFNA_JS-15" value="" style="endArrow=none;html=1;rounded=0;strokeWidth=1.618;" edge="1" parent="1">
          <mxGeometry width="50" height="50" relative="1" as="geometry">
            <mxPoint x="240" y="119.5" as="sourcePoint" />
            <mxPoint x="300" y="119.5" as="targetPoint" />
          </mxGeometry>
        </mxCell>
        <mxCell id="ib_VcqRpzg_vTdFNA_JS-16" value="&lt;font style=&quot;font-size: 18px;&quot;&gt;$$\texttt{R}_\phi$$&lt;/font&gt;" style="rounded=0;whiteSpace=wrap;html=1;fillColor=#ffcd28;gradientColor=#ffa500;strokeColor=#d79b00;" vertex="1" parent="1">
          <mxGeometry x="300" y="450" width="90" height="80" as="geometry" />
        </mxCell>
        <mxCell id="ib_VcqRpzg_vTdFNA_JS-17" value="" style="endArrow=none;html=1;rounded=0;strokeWidth=1.618;" edge="1" parent="1">
          <mxGeometry width="50" height="50" relative="1" as="geometry">
            <mxPoint x="240" y="490" as="sourcePoint" />
            <mxPoint x="300" y="490" as="targetPoint" />
          </mxGeometry>
        </mxCell>
        <mxCell id="ib_VcqRpzg_vTdFNA_JS-18" value="" style="endArrow=none;html=1;rounded=0;strokeWidth=1.618;" edge="1" parent="1">
          <mxGeometry width="50" height="50" relative="1" as="geometry">
            <mxPoint x="390" y="489.5" as="sourcePoint" />
            <mxPoint x="440" y="490" as="targetPoint" />
          </mxGeometry>
        </mxCell>
        <mxCell id="ib_VcqRpzg_vTdFNA_JS-19" value="&lt;font style=&quot;font-size: 18px;&quot;&gt;$$\alpha\ket{0}+\beta\ket{1}$$&lt;/font&gt;" style="text;html=1;align=center;verticalAlign=middle;whiteSpace=wrap;rounded=0;" vertex="1" parent="1">
          <mxGeometry x="160" y="105" width="40" height="30" as="geometry" />
        </mxCell>
        <mxCell id="ib_VcqRpzg_vTdFNA_JS-20" value="&lt;font style=&quot;font-size: 18px;&quot;&gt;$$\frac{1}{\sqrt{2}}\ket{0}+\frac{1}{\sqrt{2}}\ket{1}$$&lt;/font&gt;" style="text;html=1;align=center;verticalAlign=middle;whiteSpace=wrap;rounded=0;" vertex="1" parent="1">
          <mxGeometry x="440" y="87.5" width="180" height="65" as="geometry" />
        </mxCell>
        <mxCell id="ib_VcqRpzg_vTdFNA_JS-25" value="&lt;font style=&quot;font-size: 18px;&quot;&gt;$$\alpha\ket{0}+\beta\ket{1}$$&lt;/font&gt;" style="text;html=1;align=center;verticalAlign=middle;whiteSpace=wrap;rounded=0;" vertex="1" parent="1">
          <mxGeometry x="120" y="225" width="120" height="30" as="geometry" />
        </mxCell>
        <mxCell id="ib_VcqRpzg_vTdFNA_JS-26" value="&lt;font style=&quot;font-size: 18px;&quot;&gt;$$\beta\ket{0}+\alpha\ket{1}$$&lt;/font&gt;" style="text;html=1;align=center;verticalAlign=middle;whiteSpace=wrap;rounded=0;" vertex="1" parent="1">
          <mxGeometry x="450" y="225" width="120" height="30" as="geometry" />
        </mxCell>
        <mxCell id="ib_VcqRpzg_vTdFNA_JS-28" value="&lt;font style=&quot;font-size: 18px;&quot;&gt;$$\alpha\ket{0}+\beta\ket{1}$$&lt;/font&gt;" style="text;html=1;align=center;verticalAlign=middle;whiteSpace=wrap;rounded=0;" vertex="1" parent="1">
          <mxGeometry x="120" y="345" width="120" height="30" as="geometry" />
        </mxCell>
        <mxCell id="ib_VcqRpzg_vTdFNA_JS-29" value="&lt;font style=&quot;font-size: 18px;&quot;&gt;$$\alpha\ket{0}-\beta\ket{1}$$&lt;/font&gt;" style="text;html=1;align=center;verticalAlign=middle;whiteSpace=wrap;rounded=0;" vertex="1" parent="1">
          <mxGeometry x="450" y="345" width="120" height="30" as="geometry" />
        </mxCell>
        <mxCell id="ib_VcqRpzg_vTdFNA_JS-30" value="&lt;font style=&quot;font-size: 18px;&quot;&gt;$$\alpha\ket{0}+\beta\ket{1}$$&lt;/font&gt;" style="text;html=1;align=center;verticalAlign=middle;whiteSpace=wrap;rounded=0;" vertex="1" parent="1">
          <mxGeometry x="120" y="475" width="120" height="30" as="geometry" />
        </mxCell>
        <mxCell id="ib_VcqRpzg_vTdFNA_JS-31" value="&lt;font style=&quot;font-size: 18px;&quot;&gt;$$\alpha\ket{0}+e^{i\phi}\beta\ket{1}$$&lt;/font&gt;" style="text;html=1;align=center;verticalAlign=middle;whiteSpace=wrap;rounded=0;" vertex="1" parent="1">
          <mxGeometry x="460" y="475" width="120" height="30" as="geometry" />
        </mxCell>
        <mxCell id="ib_VcqRpzg_vTdFNA_JS-32" value="&lt;font style=&quot;font-size: 18px;&quot;&gt;$$\alpha_0\ket{0}+\beta_0\ket{1}$$&lt;/font&gt;" style="text;html=1;align=center;verticalAlign=middle;whiteSpace=wrap;rounded=0;" vertex="1" parent="1">
          <mxGeometry x="120" y="585" width="120" height="30" as="geometry" />
        </mxCell>
        <mxCell id="ib_VcqRpzg_vTdFNA_JS-33" value="&lt;font style=&quot;font-size: 18px;&quot;&gt;$$\alpha_1\ket{0}+\beta_1\ket{1}$$&lt;/font&gt;" style="text;html=1;align=center;verticalAlign=middle;whiteSpace=wrap;rounded=0;" vertex="1" parent="1">
          <mxGeometry x="120" y="685" width="120" height="30" as="geometry" />
        </mxCell>
        <mxCell id="ib_VcqRpzg_vTdFNA_JS-34" value="&lt;font style=&quot;font-size: 18px;&quot;&gt;$$\alpha_0\ket{0}+\beta_0\ket{1}$$&lt;/font&gt;" style="text;html=1;align=center;verticalAlign=middle;whiteSpace=wrap;rounded=0;" vertex="1" parent="1">
          <mxGeometry x="440" y="585" width="150" height="30" as="geometry" />
        </mxCell>
        <mxCell id="ib_VcqRpzg_vTdFNA_JS-36" value="&lt;font style=&quot;font-size: 18px;&quot;&gt;$$(\alpha_0\ket{0} +\beta_0\ket{1})\oplus(\alpha_1\ket{0}+\beta_1\ket{1})$$&lt;/font&gt;" style="text;html=1;align=center;verticalAlign=middle;whiteSpace=wrap;rounded=0;" vertex="1" parent="1">
          <mxGeometry x="460" y="685" width="300" height="30" as="geometry" />
        </mxCell>
      </root>
    </mxGraphModel>
  </diagram>
</mxfile>
